<svg xmlns="http://www.w3.org/2000/svg" xmlns:xlink="http://www.w3.org/1999/xlink" version="1.1" width="1920" height="1080" viewBox="0 0 1920 1080">
<defs>
<clipPath id="clip_12">
<path transform="matrix(1,0,0,-1,0,1080)" d="M0 0H1920V1080H0Z"/>
</clipPath>
</defs>
<g clip-path="url(#clip_12)">
<path transform="matrix(1,0,0,-1,0,1080)" d="M0 1080H1920V0H0Z" fill="#ffffff"/>
<path transform="matrix(1,0,0,-1,0,1080)" d="M971.8141 737.9768 857.1225 539.3252C852.8653 531.9514 850.311 527.5272 847.5866 525.1675 843.158 521.4514 837.3121 519.885 831.6188 520.8889 829.372 521.2851 827.2118 522.0713 825.236 523.2121 823.2602 524.3528 821.4992 525.8304 820.0327 527.5781 816.3166 532.0068 814.7502 537.8526 815.7541 543.546 816.4355 547.0852 818.9899 551.5094 823.2471 558.8832L937.9386 757.5348C942.1958 764.9085 944.7502 769.3327 947.4745 771.6924 951.9032 775.4085 957.749 776.9749 963.4424 775.971 965.6892 775.5748 967.8494 774.7886 969.8252 773.6479 971.801 772.5071 973.562 771.0295 975.0285 769.2818 978.7445 764.8531 980.3109 759.0073 979.307 753.3139 978.6256 749.7747 976.0713 745.3505 971.8141 737.9768ZM971.8141 737.9768"/>
<path transform="matrix(1,0,0,-1,0,1080)" d="M948.2761 738.2703 1063.197 539.2217C1067.421 531.9045 1069.956 527.5142 1072.66 525.1726 1077.054 521.485 1082.855 519.9306 1088.505 520.9268 1090.735 521.3199 1092.878 522.1001 1094.839 523.2321 1096.8 524.3641 1098.547 525.8304 1100.002 527.5648 1103.69 531.9595 1105.244 537.7605 1104.248 543.4102 1103.572 546.9223 1101.037 551.3126 1096.813 558.6298L981.8919 757.6784C977.6673 764.9955 975.1326 769.3859 972.4291 771.7275 968.0344 775.4151 962.2334 776.9695 956.5837 775.9733 954.3541 775.5802 952.2105 774.7999 950.2498 773.668 948.2891 772.536 946.5416 771.0696 945.0864 769.3353 941.3988 764.9406 939.8444 759.1396 940.8406 753.4899 941.5168 749.9778 944.0515 745.5875 948.2761 738.2703ZM948.2761 738.2703"/>
<path transform="matrix(1,0,0,-1,0,1080)" d="M971.8141 342.0232 857.1225 540.6748C852.8653 548.0485 850.311 552.4727 847.5866 554.8325 843.158 558.5486 837.3121 560.115 831.6188 559.1111 829.372 558.7149 827.2118 557.9286 825.236 556.7879 823.2602 555.6472 821.4992 554.1695 820.0327 552.4218 816.3166 547.9932 814.7502 542.1474 815.7541 536.454 816.4355 532.9147 818.9899 528.4905 823.2471 521.1168L937.9386 322.4652C942.1958 315.0915 944.7502 310.6673 947.4745 308.3075 951.9032 304.5914 957.749 303.0251 963.4424 304.0289 965.6892 304.4251 967.8494 305.2114 969.8252 306.3521 971.801 307.4928 973.562 308.9705 975.0285 310.7182 978.7445 315.1468 980.3109 320.9927 979.307 326.686 978.6256 330.2253 976.0713 334.6495 971.8141 342.0232ZM971.8141 342.0232"/>
<path transform="matrix(1,0,0,-1,0,1080)" d="M948.276 341.7297 1063.197 540.7782C1067.421 548.0954 1069.956 552.4857 1072.66 554.8274 1077.054 558.515 1082.855 560.0694 1088.505 559.0732 1090.735 558.68 1092.878 557.8998 1094.839 556.7678 1096.8 555.6358 1098.547 554.1695 1100.002 552.4352 1103.69 548.0405 1105.244 542.2395 1104.248 536.5898 1103.572 533.0776 1101.037 528.6873 1096.813 521.3701L981.8918 322.3216C977.6672 315.0044 975.1325 310.6141 972.429 308.2725 968.0343 304.5849 962.2333 303.0305 956.5835 304.0267 954.3539 304.4198 952.2103 305.2 950.2497 306.332 948.289 307.464 946.5415 308.9303 945.0862 310.6646 941.3986 315.0594 939.8443 320.8604 940.8405 326.5101 941.5167 330.0222 944.0514 334.4125 948.276 341.7297ZM948.276 341.7297"/>
</g>
</svg>
