<svg xmlns="http://www.w3.org/2000/svg" xmlns:xlink="http://www.w3.org/1999/xlink" version="1.1" width="1920" height="1080" viewBox="0 0 1920 1080">
<defs>
<clipPath id="clip_3">
<path transform="matrix(1,0,0,-1,0,1080)" d="M0 0H1920V1080H0Z"/>
</clipPath>
</defs>
<g clip-path="url(#clip_3)">
<path transform="matrix(1,0,0,-1,0,1080)" d="M0 1080H1920V0H0Z" fill="#ffffff"/>
<path transform="matrix(1,0,0,-1,0,1080)" d="M825.8721 808.5249C829.5867 808.5249 833.2726 807.875 836.7631 806.6045 845.6081 803.3852 852.5757 796.4177 855.795 787.5727 857.7154 782.0276 857.7154 773.7099 857.7154 759.8472V320.1528C857.7154 306.2901 857.7154 297.9724 855.795 292.4273 852.5757 283.5823 845.6081 276.6148 836.7631 273.3955 833.2726 272.125 829.5867 271.4751 825.8721 271.4751 822.1575 271.4751 818.4716 272.125 814.981 273.3955 806.1361 276.6148 799.1685 283.5823 795.9492 292.4273 794.0288 297.9724 794.0288 306.2901 794.0288 320.1528V759.8472C794.0288 773.7099 794.0288 782.0276 795.9492 787.5727 799.1685 796.4177 806.1361 803.3852 814.981 806.6045 818.4716 807.875 822.1575 808.5249 825.8721 808.5249ZM825.8721 808.5249"/>
<path transform="matrix(1,0,0,-1,0,1080)" d="M842.7065 335.2436H1077.293C1091.157 335.2436 1099.475 335.2436 1105.021 333.3221 1113.864 330.1033 1120.831 323.1369 1124.05 314.2934 1125.322 310.806 1125.971 307.0782 1125.971 303.3594 1125.971 299.6405 1125.322 295.9127 1124.05 292.4253 1120.831 283.5818 1113.864 276.6154 1105.021 273.3967 1099.475 271.4752 1091.157 271.4752 1077.293 271.4752H842.7065C828.8428 271.4752 820.5245 271.4752 814.979 273.3967 806.1355 276.6154 799.1691 283.5818 795.9503 292.4253 794.6783 295.9127 794.0288 299.6405 794.0288 303.3594 794.0288 307.0782 794.6783 310.806 795.9503 314.2934 799.1691 323.1369 806.1355 330.1033 814.979 333.3221 820.5245 335.2436 828.8428 335.2436 842.7065 335.2436ZM842.7065 335.2436"/>
<path transform="matrix(1,0,0,-1,0,1080)" d="M1094.128 808.5249C1097.842 808.5249 1101.528 807.875 1105.019 806.6045 1113.864 803.3852 1120.831 796.4177 1124.051 787.5727 1125.971 782.0276 1125.971 773.7099 1125.971 759.8472V320.1528C1125.971 306.2901 1125.971 297.9724 1124.051 292.4273 1120.831 283.5823 1113.864 276.6148 1105.019 273.3955 1101.528 272.125 1097.842 271.4751 1094.128 271.4751 1090.413 271.4751 1086.727 272.125 1083.237 273.3955 1074.392 276.6148 1067.424 283.5823 1064.205 292.4273 1062.285 297.9724 1062.285 306.2901 1062.285 320.1528V759.8472C1062.285 773.7099 1062.285 782.0276 1064.205 787.5727 1067.424 796.4177 1074.392 803.3852 1083.237 806.6045 1086.727 807.875 1090.413 808.5249 1094.128 808.5249ZM1094.128 808.5249"/>
<path transform="matrix(1,0,0,-1,0,1080)" d="M842.7065 808.5249H1077.293C1091.157 808.5249 1099.475 808.5249 1105.021 806.6034 1113.864 803.3846 1120.831 796.4182 1124.05 787.5747 1125.322 784.0873 1125.971 780.3595 1125.971 776.6407 1125.971 772.9219 1125.322 769.194 1124.05 765.7067 1120.831 756.8631 1113.864 749.8968 1105.021 746.678 1099.475 744.7565 1091.157 744.7565 1077.293 744.7565H842.7065C828.8428 744.7565 820.5245 744.7565 814.979 746.678 806.1355 749.8968 799.1691 756.8631 795.9503 765.7067 794.6783 769.194 794.0288 772.9219 794.0288 776.6407 794.0288 780.3595 794.6783 784.0873 795.9503 787.5747 799.1691 796.4182 806.1355 803.3846 814.979 806.6034 820.5245 808.5249 828.8428 808.5249 842.7065 808.5249ZM842.7065 808.5249"/>
</g>
</svg>
