<svg xmlns="http://www.w3.org/2000/svg" xmlns:xlink="http://www.w3.org/1999/xlink" version="1.1" width="1920" height="1080" viewBox="0 0 1920 1080">
<defs>
<clipPath id="clip_10">
<path transform="matrix(1,0,0,-1,0,1080)" d="M0 0H1920V1080H0Z"/>
</clipPath>
</defs>
<g clip-path="url(#clip_10)">
<path transform="matrix(1,0,0,-1,0,1080)" d="M0 1080H1920V0H0Z" fill="#ffffff"/>
<path transform="matrix(1,0,0,-1,0,1080)" d="M825.8721 808.5249C829.5867 808.5249 833.2726 807.875 836.7631 806.6045 845.6081 803.3852 852.5757 796.4177 855.795 787.5727 857.7154 782.0276 857.7154 773.7099 857.7154 759.8472V320.1528C857.7154 306.2901 857.7154 297.9724 855.795 292.4273 852.5757 283.5823 845.6081 276.6148 836.7631 273.3955 833.2726 272.125 829.5867 271.4751 825.8721 271.4751 822.1575 271.4751 818.4716 272.125 814.981 273.3955 806.1361 276.6148 799.1685 283.5823 795.9492 292.4273 794.0288 297.9724 794.0288 306.2901 794.0288 320.1528V759.8472C794.0288 773.7099 794.0288 782.0276 795.9492 787.5727 799.1685 796.4177 806.1361 803.3852 814.981 806.6045 818.4716 807.875 822.1575 808.5249 825.8721 808.5249ZM825.8721 808.5249"/>
<path transform="matrix(1,0,0,-1,0,1080)" d="M842.7065 335.2436H1077.293C1091.157 335.2436 1099.475 335.2436 1105.021 333.3221 1113.864 330.1033 1120.831 323.1369 1124.05 314.2934 1125.322 310.806 1125.971 307.0782 1125.971 303.3594 1125.971 299.6405 1125.322 295.9127 1124.05 292.4253 1120.831 283.5818 1113.864 276.6154 1105.021 273.3967 1099.475 271.4752 1091.157 271.4752 1077.293 271.4752H842.7065C828.8428 271.4752 820.5245 271.4752 814.979 273.3967 806.1355 276.6154 799.1691 283.5818 795.9503 292.4253 794.6783 295.9127 794.0288 299.6405 794.0288 303.3594 794.0288 307.0782 794.6783 310.806 795.9503 314.2934 799.1691 323.1369 806.1355 330.1033 814.979 333.3221 820.5245 335.2436 828.8428 335.2436 842.7065 335.2436ZM842.7065 335.2436"/>
<path transform="matrix(1,0,0,-1,0,1080)" d="M1094.128 808.5249C1097.842 808.5249 1101.528 807.875 1105.019 806.6045 1113.864 803.3852 1120.831 796.4177 1124.051 787.5727 1125.971 782.0276 1125.971 773.7099 1125.971 759.8472V320.1528C1125.971 306.2901 1125.971 297.9724 1124.051 292.4273 1120.831 283.5823 1113.864 276.6148 1105.019 273.3955 1101.528 272.125 1097.842 271.4751 1094.128 271.4751 1090.413 271.4751 1086.727 272.125 1083.237 273.3955 1074.392 276.6148 1067.424 283.5823 1064.205 292.4273 1062.285 297.9724 1062.285 306.2901 1062.285 320.1528V759.8472C1062.285 773.7099 1062.285 782.0276 1064.205 787.5727 1067.424 796.4177 1074.392 803.3852 1083.237 806.6045 1086.727 807.875 1090.413 808.5249 1094.128 808.5249ZM1094.128 808.5249"/>
<path transform="matrix(1,0,0,-1,0,1080)" d="M842.7065 808.5249H1077.293C1091.157 808.5249 1099.475 808.5249 1105.021 806.6034 1113.864 803.3846 1120.831 796.4182 1124.05 787.5747 1125.322 784.0873 1125.971 780.3595 1125.971 776.6407 1125.971 772.9219 1125.322 769.194 1124.05 765.7067 1120.831 756.8631 1113.864 749.8968 1105.021 746.678 1099.475 744.7565 1091.157 744.7565 1077.293 744.7565H842.7065C828.8428 744.7565 820.5245 744.7565 814.979 746.678 806.1355 749.8968 799.1691 756.8631 795.9503 765.7067 794.6783 769.194 794.0288 772.9219 794.0288 776.6407 794.0288 780.3595 794.6783 784.0873 795.9503 787.5747 799.1691 796.4182 806.1355 803.3846 814.979 806.6034 820.5245 808.5249 828.8428 808.5249 842.7065 808.5249ZM842.7065 808.5249"/>
<path transform="matrix(1,0,0,-1,0,1080)" d="M971.8141 737.9768 857.1225 539.3252C852.8653 531.9514 850.311 527.5272 847.5866 525.1675 843.158 521.4514 837.3121 519.885 831.6188 520.8889 829.372 521.2851 827.2118 522.0713 825.236 523.2121 823.2602 524.3528 821.4992 525.8304 820.0327 527.5781 816.3166 532.0068 814.7502 537.8526 815.7541 543.546 816.4355 547.0852 818.9899 551.5094 823.2471 558.8832L937.9386 757.5348C942.1958 764.9085 944.7502 769.3327 947.4745 771.6924 951.9032 775.4085 957.749 776.9749 963.4424 775.971 965.6892 775.5748 967.8494 774.7886 969.8252 773.6479 971.801 772.5071 973.562 771.0295 975.0285 769.2818 978.7445 764.8531 980.3109 759.0073 979.307 753.3139 978.6256 749.7747 976.0713 745.3505 971.8141 737.9768ZM971.8141 737.9768"/>
<path transform="matrix(1,0,0,-1,0,1080)" d="M948.2761 738.2703 1063.197 539.2217C1067.421 531.9045 1069.956 527.5142 1072.66 525.1726 1077.054 521.485 1082.855 519.9306 1088.505 520.9268 1090.735 521.3199 1092.878 522.1001 1094.839 523.2321 1096.8 524.3641 1098.547 525.8304 1100.002 527.5648 1103.69 531.9595 1105.244 537.7605 1104.248 543.4102 1103.572 546.9223 1101.037 551.3126 1096.813 558.6298L981.8919 757.6784C977.6673 764.9955 975.1326 769.3859 972.4291 771.7275 968.0344 775.4151 962.2334 776.9695 956.5837 775.9733 954.3541 775.5802 952.2105 774.7999 950.2498 773.668 948.2891 772.536 946.5416 771.0696 945.0864 769.3353 941.3988 764.9406 939.8444 759.1396 940.8406 753.4899 941.5168 749.9778 944.0515 745.5875 948.2761 738.2703ZM948.2761 738.2703"/>
<path transform="matrix(1,0,0,-1,0,1080)" d="M971.8141 342.0232 857.1225 540.6748C852.8653 548.0485 850.311 552.4727 847.5866 554.8325 843.158 558.5486 837.3121 560.115 831.6188 559.1111 829.372 558.7149 827.2118 557.9286 825.236 556.7879 823.2602 555.6472 821.4992 554.1695 820.0327 552.4218 816.3166 547.9932 814.7502 542.1474 815.7541 536.454 816.4355 532.9147 818.9899 528.4905 823.2471 521.1168L937.9386 322.4652C942.1958 315.0915 944.7502 310.6673 947.4745 308.3075 951.9032 304.5914 957.749 303.0251 963.4424 304.0289 965.6892 304.4251 967.8494 305.2114 969.8252 306.3521 971.801 307.4928 973.562 308.9705 975.0285 310.7182 978.7445 315.1468 980.3109 320.9927 979.307 326.686 978.6256 330.2253 976.0713 334.6495 971.8141 342.0232ZM971.8141 342.0232"/>
<path transform="matrix(1,0,0,-1,0,1080)" d="M948.276 341.7297 1063.197 540.7782C1067.421 548.0954 1069.956 552.4857 1072.66 554.8274 1077.054 558.515 1082.855 560.0694 1088.505 559.0732 1090.735 558.68 1092.878 557.8998 1094.839 556.7678 1096.8 555.6358 1098.547 554.1695 1100.002 552.4352 1103.69 548.0405 1105.244 542.2395 1104.248 536.5898 1103.572 533.0776 1101.037 528.6873 1096.813 521.3701L981.8918 322.3216C977.6672 315.0044 975.1325 310.6141 972.429 308.2725 968.0343 304.5849 962.2333 303.0305 956.5835 304.0267 954.3539 304.4198 952.2103 305.2 950.2497 306.332 948.289 307.464 946.5415 308.9303 945.0862 310.6646 941.3986 315.0594 939.8443 320.8604 940.8405 326.5101 941.5167 330.0222 944.0514 334.4125 948.276 341.7297ZM948.276 341.7297"/>
<path transform="matrix(1,0,0,-1,0,1080)" d="M902.5206 655.0741C904.1125 655.0741 905.692 654.7956 907.1879 654.2511 910.9783 652.8715 913.9642 649.8856 915.3438 646.0952 916.1668 643.7189 916.1668 640.1544 916.1668 634.2137V445.7864C916.1668 439.8456 916.1668 436.2811 915.3438 433.9048 913.9642 430.1144 910.9783 427.1285 907.1879 425.7489 905.692 425.2045 904.1125 424.9259 902.5206 424.9259 900.9288 424.9259 899.3492 425.2045 897.8534 425.7489 894.0629 427.1285 891.077 430.1144 889.6974 433.9048 888.8745 436.2811 888.8745 439.8456 888.8745 445.7864V634.2137C888.8745 640.1544 888.8745 643.7189 889.6974 646.0952 891.077 649.8856 894.0629 652.8715 897.8534 654.2511 899.3492 654.7956 900.9288 655.0741 902.5206 655.0741ZM902.5206 655.0741"/>
<path transform="matrix(1,0,0,-1,0,1080)" d="M1017.479 655.0741C1019.071 655.0741 1020.651 654.7956 1022.147 654.2511 1025.937 652.8715 1028.923 649.8856 1030.303 646.0952 1031.126 643.7189 1031.126 640.1544 1031.126 634.2137V445.7864C1031.126 439.8456 1031.126 436.2811 1030.303 433.9048 1028.923 430.1144 1025.937 427.1285 1022.147 425.7489 1020.651 425.2045 1019.071 424.9259 1017.479 424.9259 1015.888 424.9259 1014.308 425.2045 1012.812 425.7489 1009.022 427.1285 1006.036 430.1144 1004.656 433.9048 1003.833 436.2811 1003.833 439.8456 1003.833 445.7864V634.2137C1003.833 640.1544 1003.833 643.7189 1004.656 646.0952 1006.036 649.8856 1009.022 652.8715 1012.812 654.2511 1014.308 654.7956 1015.888 655.0741 1017.479 655.0741ZM1017.479 655.0741"/>
<path transform="matrix(1,0,0,-1,0,1080)" d="M909.7349 655.0741H1010.265C1016.206 655.0741 1019.771 655.0741 1022.147 654.2506 1025.937 652.8713 1028.923 649.8859 1030.302 646.0961 1030.847 644.6016 1031.126 643.0041 1031.126 641.4104 1031.126 639.8167 1030.847 638.2192 1030.302 636.7247 1028.923 632.9349 1025.937 629.9495 1022.147 628.5701 1019.771 627.7467 1016.206 627.7467 1010.265 627.7467H909.7349C903.7937 627.7467 900.229 627.7467 897.8525 628.5701 894.0627 629.9495 891.0773 632.9349 889.6979 636.7247 889.1528 638.2192 888.8745 639.8167 888.8745 641.4104 888.8745 643.0041 889.1528 644.6016 889.6979 646.0961 891.0773 649.8859 894.0627 652.8713 897.8525 654.2506 900.229 655.0741 903.7937 655.0741 909.7349 655.0741ZM909.7349 655.0741"/>
</g>
</svg>
