<svg xmlns="http://www.w3.org/2000/svg" xmlns:xlink="http://www.w3.org/1999/xlink" version="1.1" width="1920" height="1080" viewBox="0 0 1920 1080">
<defs>
<clipPath id="clip_0">
<path transform="matrix(1,0,0,-1,0,1080)" d="M0 0H1920V1080H0Z"/>
</clipPath>
</defs>
<g clip-path="url(#clip_0)">
<path transform="matrix(1,0,0,-1,0,1080)" d="M0 1080H1920V0H0Z" fill="#ffffff"/>
<path transform="matrix(1,0,0,-1,0,1080)" d="M825.8721 808.5249C829.5867 808.5249 833.2726 807.875 836.7631 806.6045 845.6081 803.3852 852.5757 796.4177 855.795 787.5727 857.7154 782.0276 857.7154 773.7099 857.7154 759.8472V320.1528C857.7154 306.2901 857.7154 297.9724 855.795 292.4273 852.5757 283.5823 845.6081 276.6148 836.7631 273.3955 833.2726 272.125 829.5867 271.4751 825.8721 271.4751 822.1575 271.4751 818.4716 272.125 814.981 273.3955 806.1361 276.6148 799.1685 283.5823 795.9492 292.4273 794.0288 297.9724 794.0288 306.2901 794.0288 320.1528V759.8472C794.0288 773.7099 794.0288 782.0276 795.9492 787.5727 799.1685 796.4177 806.1361 803.3852 814.981 806.6045 818.4716 807.875 822.1575 808.5249 825.8721 808.5249ZM825.8721 808.5249"/>
<path transform="matrix(1,0,0,-1,0,1080)" d="M1094.128 808.5249C1097.842 808.5249 1101.528 807.875 1105.019 806.6045 1113.864 803.3852 1120.831 796.4177 1124.051 787.5727 1125.323 784.0853 1125.971 780.3595 1125.971 776.6407 1125.971 772.9219 1125.323 769.1961 1124.051 765.7087 1120.831 756.8637 1113.864 749.8962 1105.019 746.6769 1101.528 745.4064 1097.842 744.7565 1094.128 744.7565 1090.413 744.7565 1086.727 745.4064 1083.237 746.6769 1074.392 749.8962 1067.424 756.8637 1064.205 765.7087 1062.933 769.1961 1062.285 772.9219 1062.285 776.6407 1062.285 780.3595 1062.933 784.0853 1064.205 787.5727 1067.424 796.4177 1074.392 803.3852 1083.237 806.6045 1086.727 807.875 1090.413 808.5249 1094.128 808.5249ZM1094.128 808.5249"/>
</g>
</svg>
